HIERARCHY
ROOT Hips
{
	OFFSET 0.000000 0.000000 0.000000 
	CHANNELS 6 Xposition Yposition Zposition Zrotation Yrotation Xrotation
	JOINT LeftUpLeg
	{
		OFFSET 1.363060 -1.794630 0.839290 
		CHANNELS 3 Zrotation Yrotation Xrotation
		JOINT LeftLeg
		{
			OFFSET 2.448110 -6.726130 0.000000 
			CHANNELS 3 Zrotation Yrotation Xrotation
			JOINT LeftFoot
			{
				OFFSET 2.562200 -7.039590 0.000000 
				CHANNELS 3 Zrotation Yrotation Xrotation
				JOINT LeftToeBase
				{
					OFFSET 0.157640 -0.433110 2.322550 
					CHANNELS 3 Zrotation Yrotation Xrotation
					End Site
					{
						OFFSET 0.000000 0.000000 0.000000 
					}
				}
			}
		}
	}
	JOINT RightUpLeg
	{
		OFFSET -1.305520 -1.794630 0.839290 
		CHANNELS 3 Zrotation Yrotation Xrotation
		JOINT RightLeg
		{
			OFFSET -2.542530 -6.985550 0.000000 
			CHANNELS 3 Zrotation Yrotation Xrotation
			JOINT RightFoot
			{
				OFFSET -2.568260 -7.056230 0.000000 
				CHANNELS 3 Zrotation Yrotation Xrotation
				JOINT RightToeBase
				{
					OFFSET -0.164730 -0.452590 2.363150 
					CHANNELS 3 Zrotation Yrotation Xrotation
					End Site
					{
						OFFSET 0.000000 0.000000 0.000000 
					}
				}
			}
		}
	}
	JOINT Spine
	{
		OFFSET 0.028270 2.035590 -0.193380 
		CHANNELS 3 Zrotation Yrotation Xrotation
		JOINT Spine1
		{
			OFFSET 0.056720 2.048850 -0.042750 
			CHANNELS 3 Zrotation Yrotation Xrotation
			JOINT Neck1
			{
				OFFSET -0.054170 1.746240 0.172020 
				CHANNELS 3 Zrotation Yrotation Xrotation
				JOINT Head
				{
					OFFSET 0.104070 1.761360 -0.123970 
					CHANNELS 3 Zrotation Yrotation Xrotation
					End Site
					{
						OFFSET 0.000000 0.000000 0.000000 
					}
				}
			}
			JOINT LeftArm
			{
				OFFSET 3.362410 1.200890 -0.311210 
				CHANNELS 3 Zrotation Yrotation Xrotation
				JOINT LeftForeArm
				{
					OFFSET 4.983000 -0.000000 -0.000000 
					CHANNELS 3 Zrotation Yrotation Xrotation
					JOINT LeftHand
					{
						OFFSET 3.483560 -0.000000 -0.000000 
						CHANNELS 3 Zrotation Yrotation Xrotation
						JOINT LeftHandIndex1
						{
							OFFSET 0.715260 -0.000000 -0.000000 
							CHANNELS 3 Zrotation Yrotation Xrotation
							End Site
							{
								OFFSET 0.000000 0.000000 0.000000 
							}
						}
					}
				}
			}
			JOINT RightArm
			{
				OFFSET -3.136600 1.374050 -0.404650 
				CHANNELS 3 Zrotation Yrotation Xrotation
				JOINT RightForeArm
				{
					OFFSET -5.241900 -0.000000 -0.000000 
					CHANNELS 3 Zrotation Yrotation Xrotation
					JOINT RightHand
					{
						OFFSET -3.444170 -0.000000 -0.000000 
						CHANNELS 3 Zrotation Yrotation Xrotation
						JOINT RightHandIndex1
						{
							OFFSET -0.622530 -0.000000 -0.000000 
							CHANNELS 3 Zrotation Yrotation Xrotation
							End Site
							{
								OFFSET 0.000000 0.000000 0.000000 
							}
						}
					}
				}
			}
		}
	}
}
MOTION
Frames: 7
Frame Time: 0.041667
39.304892 17.393913 -6.810079 -171.093646 87.597590 -166.675546 -27.523439 5.630298 -15.789868 0.223393 6.978798 19.595813 -0.282882 3.287740 -3.633576 0.084200 -1.872200 -5.152700 28.720146 5.942433 -17.578661 -12.729276 -19.013018 67.538827 0.759789 -9.554645 -3.489780 -0.366900 -3.891100 10.770500 -0.323417 3.129451 -0.298532 -4.185557 1.457255 7.582773 4.096723 10.421351 13.087781 -0.258700 5.707500 6.343000 -68.222978 -2.111800 45.215230 20.643184 -29.919386 -6.854734 -1.290111 -1.248796 -22.320837 -7.125000 0.000000 0.000000 74.289433 0.975596 38.759295 -27.773982 38.023391 -10.016843 0.166160 -0.462676 -0.947108 7.125000 0.000000 0.000000 
39.392819 17.381235 -6.816366 -171.172836 87.750064 -166.752073 -27.540302 5.523839 -15.534402 0.279102 7.098614 19.955839 -0.283343 3.402745 -4.323306 0.080900 -1.834500 -5.048500 28.604086 6.869314 -18.519127 -12.697859 -19.082314 67.514442 0.612544 -8.365703 -4.746839 -0.247800 -3.203100 8.844600 -0.320716 3.005994 -0.284933 -4.104792 1.387908 7.659552 4.208724 9.966485 13.238158 -0.131700 5.479800 6.424300 -68.619095 -3.031098 45.122098 21.095641 -30.250636 -7.057778 -1.274633 -1.217789 -22.318892 -7.125000 0.000000 0.000000 74.206411 1.065753 38.829452 -27.772737 38.018410 -10.013599 0.165573 -0.459280 -0.968558 7.125000 0.000000 0.000000 
39.480540 17.368350 -6.822139 -170.989486 87.894331 -166.550132 -27.548631 5.426483 -15.303254 0.335760 7.218891 20.319300 -0.279360 3.500274 -5.001097 0.079000 -1.812800 -4.988500 28.493086 7.783973 -19.461911 -12.615697 -19.131541 67.330861 0.466624 -7.271608 -6.161546 -0.147700 -2.476900 6.825700 -0.313714 2.869205 -0.274484 -4.006152 1.309577 7.727769 4.312730 9.531424 13.374644 -0.009900 5.260600 6.501300 -69.001512 -3.880852 45.057083 21.641274 -30.674845 -7.313937 -1.253799 -1.191714 -22.347251 -7.125000 0.000000 0.000000 74.108994 1.144526 38.899175 -27.781196 38.020600 -10.016114 0.165377 -0.455178 -1.002465 7.125000 0.000000 0.000000 
39.567952 17.355258 -6.827396 -170.648159 88.030210 -166.173942 -27.554280 5.329883 -15.090926 0.392348 7.337715 20.680112 -0.272036 3.588125 -5.664252 0.079200 -1.815000 -4.994600 28.380642 8.678995 -20.404770 -12.485233 -19.159634 66.994184 0.321728 -6.310790 -7.710374 -0.075900 -1.777800 4.892100 -0.303126 2.720426 -0.267569 -3.891828 1.223522 7.785951 4.408875 9.118941 13.498506 0.105700 5.051700 6.574600 -69.366393 -4.651731 45.029583 22.286009 -31.195971 -7.629454 -1.229258 -1.169626 -22.411260 -7.125000 0.000000 0.000000 74.001890 1.211624 38.963952 -27.793502 38.025323 -10.021494 0.165674 -0.450979 -1.042539 7.125000 0.000000 0.000000 
39.655467 17.341961 -6.832138 -170.363642 88.162176 -165.836750 -27.566839 5.229621 -14.897514 0.448372 7.455555 21.036517 -0.262658 3.674258 -6.307591 0.080900 -1.834400 -5.048100 28.255720 9.554681 -21.345491 -12.308430 -19.165002 66.508011 0.180466 -5.533160 -9.331968 -0.035100 -1.209000 3.324100 -0.290377 2.563166 -0.264387 -3.766207 1.132273 7.832792 4.494067 8.726258 13.611474 0.211300 4.852300 6.645100 -69.701079 -5.333687 45.065232 23.036097 -31.816959 -8.010890 -1.201621 -1.150748 -22.521583 -7.125000 0.000000 0.000000 73.888046 1.269490 39.017462 -27.802671 38.026813 -10.025760 0.166282 -0.447216 -1.082799 7.125000 0.000000 0.000000 
39.742673 17.328148 -6.836364 -170.138775 88.287782 -165.542482 -27.585283 5.115450 -14.719486 0.503555 7.572034 21.387190 -0.251651 3.762116 -6.936465 0.083700 -1.866500 -5.136900 28.115301 10.402306 -22.289718 -12.088272 -19.147239 65.880557 0.045944 -4.962498 -10.957386 -0.014900 -0.788000 2.165600 -0.275159 2.395749 -0.264681 -3.631417 1.035432 7.869236 4.562917 8.357462 13.712758 0.302700 4.664300 6.713700 -70.001258 -5.936730 45.161021 23.890659 -32.531018 -8.460922 -1.170803 -1.135805 -22.698598 -7.125000 0.000000 0.000000 73.766589 1.325683 39.060500 -27.804091 38.020756 -10.026195 0.167358 -0.443669 -1.117532 7.125000 0.000000 0.000000 
39.829878 17.313820 -6.840384 -170.059159 88.409941 -165.381589 -27.612566 4.988119 -14.552490 0.557797 7.686316 21.730030 -0.240517 3.860324 -7.548193 0.087900 -1.912500 -5.263900 27.955489 11.209216 -23.230200 -11.827904 -19.104979 65.120020 -0.078213 -4.598405 -12.516472 -0.006800 -0.530800 1.458600 -0.258688 2.223223 -0.268951 -3.493400 0.936444 7.893169 4.618147 8.006667 13.810468 0.383300 4.485000 6.786800 -70.255976 -6.465367 45.338015 24.844476 -33.325336 -8.978045 -1.136258 -1.121977 -22.937803 -7.125000 0.000000 0.000000 73.640464 1.377451 39.081398 -27.798253 38.007782 -10.023375 0.168446 -0.440852 -1.140110 7.125000 0.000000 0.000000 
